<svg width="16.000000" height="14.000000" viewBox="0 0 16 14" fill="none" xmlns="http://www.w3.org/2000/svg" xmlns:xlink="http://www.w3.org/1999/xlink">
	<desc>
			Created with Pixso.
	</desc>
	<defs/>
	<mask id="mask_0_249" fill="white">
		<path id="Combined Shape" d="M8 8.09326C7.17963 9.25452 5.90784 10 4.47998 10C2.00574 10 0 7.76141 0 5C0 2.23859 2.00574 0 4.47998 0C5.90784 0 7.17963 0.745483 8 1.90674C8.82037 0.745483 10.0922 0 11.52 0C13.9943 0 16 2.23859 16 5C16 7.76141 13.9943 10 11.52 10C10.0922 10 8.82037 9.25452 8 8.09326Z" clip-rule="evenodd" fill="" fill-opacity="1.000000" fill-rule="evenodd"/>
	</mask>
	<path id="Combined Shape" d="M8 8.09326C7.17963 9.25452 5.90784 10 4.47998 10C2.00574 10 0 7.76141 0 5C0 2.23859 2.00574 0 4.47998 0C5.90784 0 7.17963 0.745483 8 1.90674C8.82037 0.745483 10.0922 0 11.52 0C13.9943 0 16 2.23859 16 5C16 7.76141 13.9943 10 11.52 10C10.0922 10 8.82037 9.25452 8 8.09326Z" clip-rule="evenodd" fill="#FB5F8A" fill-opacity="1.000000" fill-rule="evenodd" mask="url(#mask_0_249)"/>
	<path id="Combined Shape" d="" fill="#979797" fill-opacity="0.000000" fill-rule="nonzero"/>
	<mask id="mask0_248" mask-type="alpha" maskUnits="userSpaceOnUse" x="0.000000" y="0.000000" width="16.000000" height="10.000000">
		<mask id="mask_0_248" fill="white">
			<path id="Combined Shape" d="M8 8.09326C7.17963 9.25452 5.90784 10 4.47998 10C2.00574 10 0 7.76141 0 5C0 2.23859 2.00574 0 4.47998 0C5.90784 0 7.17963 0.745483 8 1.90674C8.82037 0.745483 10.0922 0 11.52 0C13.9943 0 16 2.23859 16 5C16 7.76141 13.9943 10 11.52 10C10.0922 10 8.82037 9.25452 8 8.09326Z" clip-rule="evenodd" fill="" fill-opacity="1.000000" fill-rule="evenodd"/>
		</mask>
		<path id="Combined Shape" d="M8 8.09326C7.17963 9.25452 5.90784 10 4.47998 10C2.00574 10 0 7.76141 0 5C0 2.23859 2.00574 0 4.47998 0C5.90784 0 7.17963 0.745483 8 1.90674C8.82037 0.745483 10.0922 0 11.52 0C13.9943 0 16 2.23859 16 5C16 7.76141 13.9943 10 11.52 10C10.0922 10 8.82037 9.25452 8 8.09326Z" clip-rule="evenodd" fill="#FB5F8A" fill-opacity="1.000000" fill-rule="evenodd" mask="url(#mask_0_248)"/>
		<path id="Combined Shape" d="" fill="#979797" fill-opacity="0.000000" fill-rule="nonzero"/>
	</mask>
	<g mask="url(#mask0_248)">
		<rect id="Color" width="16.000000" height="16.000000" fill="#FC719F" fill-opacity="1.000000"/>
		<rect id="Color Copy" width="16.000000" height="16.000000" fill="#ED5267" fill-opacity="1.000000"/>
	</g>
	<path id="Oval Copy" d="M8 14C10.76 14 16 9 16 5C16 5 0 5 0 5C0 9 5.23 14 8 14Z" fill="#FB5F8A" fill-opacity="1.000000" fill-rule="evenodd"/>
	<path id="Oval Copy" d="M16 5C16 5 0 5 0 5C0 9 5.23 14 8 14C10.76 14 16 9 16 5Z" stroke="#979797" stroke-opacity="0" stroke-width="0.000000"/>
	<mask id="mask0_256" mask-type="alpha" maskUnits="userSpaceOnUse" x="0.000000" y="5.000000" width="16.000000" height="9.000000">
		<path id="Oval Copy" d="M8 14C10.76 14 16 9 16 5C16 5 0 5 0 5C0 9 5.23 14 8 14Z" fill="#FB5F8A" fill-opacity="1.000000" fill-rule="evenodd"/>
		<path id="Oval Copy" d="M16 5C16 5 0 5 0 5C0 9 5.23 14 8 14C10.76 14 16 9 16 5Z" stroke="#979797" stroke-opacity="0" stroke-width="0.000000"/>
	</mask>
	<g mask="url(#mask0_256)">
		<rect id="Color" width="16.000000" height="16.000000" fill="#FC719F" fill-opacity="1.000000"/>
		<rect id="Color Copy" width="16.000000" height="16.000000" fill="#ED5267" fill-opacity="1.000000"/>
	</g>
</svg>
