<svg width="18.384766" height="18.384766" viewBox="0 0 18.3848 18.3848" fill="none" xmlns="http://www.w3.org/2000/svg" xmlns:xlink="http://www.w3.org/1999/xlink">
	<desc>
			Created with Pixso.
	</desc>
	<defs/>
	<g opacity="0.200000" style="mix-blend-mode:normal">
		<rect id="Rectangle 8" x="1.192383" y="1.192383" width="16.000000" height="16.000000" fill="#D8D8D8" fill-opacity="0"/>
	</g>
	<path id="Combined Shape" d="M7.78052 3.5332C9.73187 1.58185 12.9006 1.58688 14.8492 3.53552C16.8019 5.48816 16.7997 8.6561 14.8516 10.6042L14.1422 11.3137L12.7279 9.89951L13.4371 9.19037C14.6077 8.01974 14.6066 6.12131 13.4351 4.94974C12.2659 3.78055 10.3649 3.77728 9.1944 4.94772L8.48529 5.65686L7.07111 4.24265L7.78052 3.5332ZM11.3137 7.07108C10.9205 6.67783 10.293 6.67761 9.90601 7.06454L7.06458 9.90601C6.68286 10.2877 6.68054 10.9232 7.07111 11.3137C7.46436 11.707 8.09186 11.7072 8.47876 11.3202L11.3203 8.47876C11.702 8.09708 11.7042 7.46158 11.3137 7.07108ZM9.89954 12.7279L11.3137 14.1422L10.6042 14.8516C8.65295 16.8029 5.48419 16.7979 3.53552 14.8492C1.58295 12.8966 1.58502 9.72867 3.5332 7.78052L4.24268 7.07108L5.65686 8.48529L4.94775 9.1944C3.7771 10.3651 3.7782 12.2634 4.94977 13.4351C6.11896 14.6042 8.0199 14.6075 9.19037 13.437L9.89954 12.7279Z" clip-rule="evenodd" fill="#3E4056" fill-opacity="1.000000" fill-rule="evenodd"/>
	<mask id="mask0_165" mask-type="alpha" maskUnits="userSpaceOnUse" x="0.000000" y="0.000000" width="18.384766" height="18.384766">
		<path id="Combined Shape" d="M7.78052 3.5332C9.73187 1.58185 12.9006 1.58688 14.8492 3.53552C16.8019 5.48816 16.7997 8.6561 14.8516 10.6042L14.1422 11.3137L12.7279 9.89951L13.4371 9.19037C14.6077 8.01974 14.6066 6.12131 13.4351 4.94974C12.2659 3.78055 10.3649 3.77728 9.1944 4.94772L8.48529 5.65686L7.07111 4.24265L7.78052 3.5332ZM11.3137 7.07108C10.9205 6.67783 10.293 6.67761 9.90601 7.06454L7.06458 9.90601C6.68286 10.2877 6.68054 10.9232 7.07111 11.3137C7.46436 11.707 8.09186 11.7072 8.47876 11.3202L11.3203 8.47876C11.702 8.09708 11.7042 7.46158 11.3137 7.07108ZM9.89954 12.7279L11.3137 14.1422L10.6042 14.8516C8.65295 16.8029 5.48419 16.7979 3.53552 14.8492C1.58295 12.8966 1.58502 9.72867 3.5332 7.78052L4.24268 7.07108L5.65686 8.48529L4.94775 9.1944C3.7771 10.3651 3.7782 12.2634 4.94977 13.4351C6.11896 14.6042 8.0199 14.6075 9.19037 13.437L9.89954 12.7279Z" clip-rule="evenodd" fill="#3E4056" fill-opacity="1.000000" fill-rule="evenodd"/>
	</mask>
	<g mask="url(#mask0_165)">
		<rect id="_/color_red copy" rx="0.000000" width="15.000000" height="15.000000" transform="translate(1.692383 1.692383)" fill="#FFFFFF" fill-opacity="0"/>
		<rect id="Color" x="1.192383" y="1.192383" width="16.000000" height="16.000000" fill="#3E4056" fill-opacity="1.000000"/>
	</g>
	<path id="Combined Shape" d="M8.48529 4.24261C8.09204 3.8494 7.46161 3.85211 7.07111 4.24261C6.67786 4.63586 6.68054 5.26633 7.07111 5.65683C7.46436 6.05008 8.09479 6.04736 8.48529 5.65683C8.87854 5.26361 8.87585 4.63315 8.48529 4.24261ZM12.728 9.89948C13.1185 9.50897 13.7489 9.50623 14.1422 9.89948C14.5327 10.29 14.5354 10.9204 14.1422 11.3137C13.7516 11.7042 13.1212 11.7069 12.728 11.3137C12.3374 10.9232 12.3347 10.2927 12.728 9.89948ZM5.65686 7.07104C5.26361 6.6778 4.63318 6.68054 4.24268 7.07104C3.84943 7.46429 3.85211 8.09476 4.24268 8.48526C4.63593 8.87851 5.26636 8.87579 5.65686 8.48526C6.05011 8.09201 6.04742 7.46158 5.65686 7.07104ZM11.3137 12.7279C10.9205 12.3347 10.29 12.3374 9.89954 12.7279C9.50629 13.1212 9.50897 13.7516 9.89954 14.1422C10.2928 14.5354 10.9232 14.5327 11.3137 14.1422C11.707 13.7489 11.7043 13.1184 11.3137 12.7279Z" clip-rule="evenodd" fill="#3E4056" fill-opacity="1.000000" fill-rule="evenodd"/>
	<mask id="mask0_178" mask-type="alpha" maskUnits="userSpaceOnUse" x="3.535583" y="3.535522" width="11.313660" height="11.313721">
		<path id="Combined Shape" d="M8.48529 4.24261C8.09204 3.8494 7.46161 3.85211 7.07111 4.24261C6.67786 4.63586 6.68054 5.26633 7.07111 5.65683C7.46436 6.05008 8.09479 6.04736 8.48529 5.65683C8.87854 5.26361 8.87585 4.63315 8.48529 4.24261ZM12.728 9.89948C13.1185 9.50897 13.7489 9.50623 14.1422 9.89948C14.5327 10.29 14.5354 10.9204 14.1422 11.3137C13.7516 11.7042 13.1212 11.7069 12.728 11.3137C12.3374 10.9232 12.3347 10.2927 12.728 9.89948ZM5.65686 7.07104C5.26361 6.6778 4.63318 6.68054 4.24268 7.07104C3.84943 7.46429 3.85211 8.09476 4.24268 8.48526C4.63593 8.87851 5.26636 8.87579 5.65686 8.48526C6.05011 8.09201 6.04742 7.46158 5.65686 7.07104ZM11.3137 12.7279C10.9205 12.3347 10.29 12.3374 9.89954 12.7279C9.50629 13.1212 9.50897 13.7516 9.89954 14.1422C10.2928 14.5354 10.9232 14.5327 11.3137 14.1422C11.707 13.7489 11.7043 13.1184 11.3137 12.7279Z" clip-rule="evenodd" fill="#3E4056" fill-opacity="1.000000" fill-rule="evenodd"/>
	</mask>
	<g mask="url(#mask0_178)">
		<rect id="Color" x="1.192383" y="1.192383" width="16.000000" height="16.000000" fill="#3E4056" fill-opacity="1.000000"/>
	</g>
</svg>
