<svg width="64.000000" height="64.000000" viewBox="0 0 64 64" fill="none" xmlns="http://www.w3.org/2000/svg" xmlns:xlink="http://www.w3.org/1999/xlink">
	<desc>
			Created with Pixso.
	</desc>
	<defs>
		<linearGradient x1="-31.999977" y1="31.999996" x2="32.000015" y2="96.000015" id="paint_linear_0_33_0" gradientUnits="userSpaceOnUse">
			<stop stop-color="#FF974F"/>
			<stop offset="1.000000" stop-color="#E32C75"/>
		</linearGradient>
	</defs>
	<path id="Oval" d="M32 64C49.67 64 64 49.67 64 32C64 14.32 49.67 0 32 0C14.32 0 0 14.32 0 32C0 49.67 14.32 64 32 64Z" fill="url(#paint_linear_0_33_0)" fill-opacity="1.000000" fill-rule="evenodd"/>
	<path id="Oval" d="M64 32C64 14.32 49.67 0 32 0C14.32 0 0 14.32 0 32C0 49.67 14.32 64 32 64C49.67 64 64 49.67 64 32Z" stroke="#979797" stroke-opacity="0" stroke-width="0.000000"/>
	<path id="Combined Shape" d="M32.9091 22L31.0909 22L31.0909 31.0909L22 31.0909L22 32.9091L31.0909 32.9091L31.0909 42L32.9091 42L32.9091 32.9091L42 32.9091L42 31.0909L32.9091 31.0909L32.9091 22Z" clip-rule="evenodd" fill="#FFFFFF" fill-opacity="1.000000" fill-rule="evenodd"/>
</svg>
