<svg width="32.000000" height="32.000000" viewBox="0 0 32 32" fill="none" xmlns="http://www.w3.org/2000/svg" xmlns:xlink="http://www.w3.org/1999/xlink">
	<desc>
			Created with Pixso.
	</desc>
	<defs/>
	<g opacity="0.000100" style="mix-blend-mode:normal">
		<rect id="Rectangle 2 Copy 3" width="32.000000" height="32.000000" fill="#EFF3F6" fill-opacity="1.000000"/>
		<rect id="Rectangle 2 Copy 3" width="32.000000" height="32.000000" stroke="#D9DBE4" stroke-opacity="0" stroke-width="0.000000"/>
	</g>
	<path id="Shape" d="M9.89 11.65C9.91 11.45 9.84 11.25 9.69 11.11L8.2 9.27L8.2 9L12.84 9L16.42 17.04L19.57 9L24 9L24 9.27L22.72 10.52C22.61 10.61 22.55 10.75 22.58 10.89L22.58 20.1C22.55 20.24 22.61 20.38 22.72 20.47L23.97 21.72L23.97 22L17.69 22L17.69 21.72L18.98 20.44C19.11 20.31 19.11 20.27 19.11 20.07L19.11 12.63L15.52 21.96L15.03 21.96L10.85 12.63L10.85 18.88C10.81 19.15 10.9 19.41 11.08 19.6L12.76 21.69L12.76 21.96L8 21.96L8 21.69L9.68 19.6C9.86 19.41 9.94 19.15 9.89 18.88L9.89 11.65Z" fill="#3E3F58" fill-opacity="1.000000" fill-rule="nonzero"/>
</svg>
