<svg width="32.000000" height="32.000000" viewBox="0 0 32 32" fill="none" xmlns="http://www.w3.org/2000/svg" xmlns:xlink="http://www.w3.org/1999/xlink">
	<desc>
			Created with Pixso.
	</desc>
	<defs/>
	<g opacity="0.980000" style="mix-blend-mode:normal">
		<g opacity="0.000100" style="mix-blend-mode:normal">
			<rect id="Rectangle 2 Copy 3" width="32.000000" height="32.000000" fill="#EFF3F6" fill-opacity="1.000000"/>
			<rect id="Rectangle 2 Copy 3" width="32.000000" height="32.000000" stroke="#D9DBE4" stroke-opacity="0" stroke-width="0.000000"/>
		</g>
		<rect id="Rectangle 3" x="8.000000" y="8.000000" width="16.000000" height="16.000000" fill="#FFFFFF" fill-opacity="0"/>
		<mask id="mask_0_47" fill="white">
			<path id="Shape" d="M21.3529 14.8L21.3529 19.2L21.7647 19.6L23 20.8L23 21.6L9 21.6L9 20.8L10.2353 19.6L10.6471 19.2L10.6471 14.8C10.6471 12.344 12.4012 10.288 14.7647 9.744L14.7647 9.2C14.7647 8.536 15.3165 8 16 8C16.6835 8 17.2353 8.536 17.2353 9.2L17.2353 9.744C19.5988 10.288 21.3529 12.344 21.3529 14.8ZM19.3529 14.8L19.3529 19.6L12.6471 19.6L12.6471 14.8Q12.6471 14.4789 12.7113 14.1713L12.7113 14.1713Q12.7569 13.9532 12.8348 13.7418Q12.8922 13.5857 12.9657 13.4375L12.9657 13.4375Q13.1259 13.1142 13.3618 12.8283Q13.4883 12.6751 13.6312 12.5392Q13.8794 12.3029 14.1771 12.1185Q14.3808 11.9924 14.598 11.8968Q14.8932 11.7667 15.2133 11.693L16 11.512L16.7867 11.693Q17.1068 11.7667 17.402 11.8968L17.4021 11.8968Q17.6192 11.9924 17.8229 12.1185Q18.1206 12.3029 18.3688 12.5391L18.3688 12.5391Q18.5117 12.6751 18.6382 12.8283Q18.8742 13.1142 19.0344 13.4376Q19.1078 13.5857 19.1652 13.7418Q19.2431 13.9531 19.2887 14.1713Q19.3529 14.4789 19.3529 14.8ZM16 24C15.0941 24 14.3529 23.28 14.3529 22.4L17.6471 22.4C17.6471 23.28 16.9059 24 16 24Z" clip-rule="evenodd" fill="" fill-opacity="1.000000" fill-rule="evenodd"/>
		</mask>
		<path id="Shape" d="M21.3529 14.8L21.3529 19.2L21.7647 19.6L23 20.8L23 21.6L9 21.6L9 20.8L10.2353 19.6L10.6471 19.2L10.6471 14.8C10.6471 12.344 12.4012 10.288 14.7647 9.744L14.7647 9.2C14.7647 8.536 15.3165 8 16 8C16.6835 8 17.2353 8.536 17.2353 9.2L17.2353 9.744C19.5988 10.288 21.3529 12.344 21.3529 14.8ZM19.3529 14.8L19.3529 19.6L12.6471 19.6L12.6471 14.8Q12.6471 14.4789 12.7113 14.1713L12.7113 14.1713Q12.7569 13.9532 12.8348 13.7418Q12.8922 13.5857 12.9657 13.4375L12.9657 13.4375Q13.1259 13.1142 13.3618 12.8283Q13.4883 12.6751 13.6312 12.5392Q13.8794 12.3029 14.1771 12.1185Q14.3808 11.9924 14.598 11.8968Q14.8932 11.7667 15.2133 11.693L16 11.512L16.7867 11.693Q17.1068 11.7667 17.402 11.8968L17.4021 11.8968Q17.6192 11.9924 17.8229 12.1185Q18.1206 12.3029 18.3688 12.5391L18.3688 12.5391Q18.5117 12.6751 18.6382 12.8283Q18.8742 13.1142 19.0344 13.4376Q19.1078 13.5857 19.1652 13.7418Q19.2431 13.9531 19.2887 14.1713Q19.3529 14.4789 19.3529 14.8ZM16 24C15.0941 24 14.3529 23.28 14.3529 22.4L17.6471 22.4C17.6471 23.28 16.9059 24 16 24Z" clip-rule="evenodd" fill="#586571" fill-opacity="0.000000" fill-rule="evenodd" mask="url(#mask_0_47)"/>
		<path id="Shape" d="M21.3529 19.2L21.3529 14.8Q21.3529 14.7424 21.3517 14.6852C21.3389 14.1125 21.2307 13.5628 21.0419 13.0504Q21.0291 13.0155 21.0158 12.981C20.8155 12.461 20.5318 11.9806 20.1804 11.555Q20.1571 11.5267 20.1331 11.4985C19.7758 11.0779 19.3514 10.7126 18.8758 10.4181C18.3945 10.1201 17.8607 9.89448 17.2906 9.75703Q17.263 9.75037 17.2353 9.744L17.2353 9.2C17.2353 8.536 16.6835 8 16 8C15.3165 8 14.7647 8.536 14.7647 9.2L14.7647 9.744Q14.7328 9.75135 14.7011 9.75905C12.9579 10.1823 11.555 11.4302 10.9581 13.0504C10.9455 13.0845 10.9333 13.1189 10.9214 13.1534Q10.8671 13.3113 10.8232 13.473C10.7131 13.8788 10.6523 14.3041 10.6474 14.7425Q10.6471 14.7712 10.6471 14.8L10.6471 19.2L10.2353 19.6L9 20.8L9 21.6L23 21.6L23 20.8L21.7647 19.6L21.3529 19.2ZM17.6471 22.4L14.3529 22.4C14.3529 22.8766 14.5703 23.3062 14.9135 23.6C15.204 23.8487 15.5847 24 16 24C16.4153 24 16.796 23.8487 17.0865 23.6C17.4297 23.3062 17.6471 22.8766 17.6471 22.4ZM12.6471 19.6L19.3529 19.6L19.3529 14.8Q19.3529 14.519 19.3037 14.2484Q19.2967 14.2097 19.2887 14.1713L19.2887 14.1713L19.2885 14.1705Q19.243 13.9527 19.1652 13.7418Q19.1149 13.6052 19.0524 13.4746Q19.0442 13.4574 19.0357 13.4402L19.0344 13.4376L19.0343 13.4375Q18.8741 13.1141 18.6382 12.8283Q18.5118 12.6753 18.3691 12.5394L18.3688 12.5391L18.3688 12.5391Q18.1206 12.3029 17.8229 12.1185Q17.6193 11.9925 17.4023 11.8969L17.402 11.8968Q17.1068 11.7667 16.7867 11.693L16 11.512L15.2133 11.693Q14.9331 11.7575 14.6719 11.8652Q14.6348 11.8806 14.598 11.8968L14.5977 11.8969L14.5956 11.8978Q14.3797 11.9931 14.1771 12.1185Q13.9164 12.2799 13.6937 12.4811Q13.6621 12.5097 13.6312 12.5392L13.6309 12.5395Q13.4882 12.6753 13.3618 12.8283Q13.2439 12.9712 13.1448 13.1235Q13.0458 13.2758 12.9657 13.4375L12.9657 13.4375L12.9642 13.4404Q12.9467 13.476 12.93 13.5121Q12.8941 13.5896 12.8625 13.6693Q12.8482 13.7053 12.8348 13.7418Q12.7958 13.8474 12.765 13.9548Q12.7342 14.0617 12.7115 14.1703L12.7113 14.1713Q12.6839 14.3026 12.6682 14.4364Q12.6471 14.616 12.6471 14.8L12.6471 19.6Z" clip-rule="evenodd" fill="#3E4056" fill-opacity="1.000000" fill-rule="evenodd"/>
	</g>
</svg>
