<svg width="16.000000" height="16.000000" viewBox="0 0 16 16" fill="none" xmlns="http://www.w3.org/2000/svg" xmlns:xlink="http://www.w3.org/1999/xlink">
	<desc>
			Created with Pixso.
	</desc>
	<defs/>
	<path id="Oval 382 Copy" d="M2.34 13.65C5.46 16.78 10.53 16.78 13.65 13.65C16.78 10.53 16.78 5.46 13.65 2.34C10.53 -0.79 5.46 -0.79 2.34 2.34C-0.79 5.46 -0.79 10.53 2.34 13.65Z" fill="#3E4056" fill-opacity="0" fill-rule="evenodd"/>
	<path id="Oval 382 Copy" d="M2.34 13.65C5.46 16.78 10.53 16.78 13.65 13.65C16.78 10.53 16.78 5.46 13.65 2.34C10.53 -0.79 5.46 -0.79 2.34 2.34C-0.79 5.46 -0.79 10.53 2.34 13.65ZM13.09 11.17Q12.73 11.74 12.24 12.24Q11.74 12.73 11.17 13.09Q10.73 13.36 10.25 13.56Q9.76 13.76 9.24 13.87Q8.63 14 8 14Q7.36 14 6.75 13.87Q6.23 13.76 5.74 13.56Q5.26 13.36 4.82 13.09Q4.25 12.73 3.75 12.24Q3.26 11.74 2.9 11.17Q2.63 10.73 2.43 10.25Q2.23 9.76 2.12 9.24Q2 8.63 2 8Q2 7.36 2.12 6.75Q2.23 6.23 2.43 5.74Q2.63 5.26 2.9 4.82Q3.26 4.25 3.75 3.75Q4.25 3.26 4.82 2.9Q5.26 2.63 5.74 2.43Q6.23 2.23 6.75 2.12Q7.36 2 8 2Q8.63 2 9.24 2.12Q9.76 2.23 10.25 2.43Q10.73 2.63 11.17 2.9Q11.74 3.26 12.24 3.75Q12.73 4.25 13.09 4.82Q13.36 5.26 13.56 5.74Q13.76 6.23 13.87 6.75Q14 7.36 14 8Q14 8.63 13.87 9.24Q13.76 9.76 13.56 10.25Q13.36 10.73 13.09 11.17Z" fill="#3E4056" fill-opacity="1.000000" fill-rule="evenodd"/>
	<path id="Path 2" d="" fill="#D8D8D8" fill-opacity="0" fill-rule="nonzero"/>
	<path id="Path 2" d="M5 11L11 5" stroke="#3E4056" stroke-opacity="1.000000" stroke-width="2.000000"/>
	<path id="Path 2 Copy" d="" fill="#D8D8D8" fill-opacity="0" fill-rule="nonzero"/>
	<path id="Path 2 Copy" d="M11 11L5 5" stroke="#3E4056" stroke-opacity="1.000000" stroke-width="2.000000"/>
</svg>
