<svg width="16.000000" height="16.000000" viewBox="0 0 16 16" fill="none" xmlns="http://www.w3.org/2000/svg" xmlns:xlink="http://www.w3.org/1999/xlink">
	<desc>
			Created with Pixso.
	</desc>
	<defs/>
	<g opacity="0.000100" style="mix-blend-mode:normal">
		<rect id="16x16" width="16.000000" height="16.000000" fill="#ECF1F8" fill-opacity="1.000000"/>
	</g>
	<mask id="mask_0_281" fill="white">
		<path id="Combined Shape" d="M10 2C10 3.10457 9.10461 4 8 4C6.89539 4 6 3.10457 6 2C6 0.895432 6.89539 0 8 0C9.10461 0 10 0.895432 10 2ZM10 8C10 9.10457 9.10461 10 8 10C6.89539 10 6 9.10457 6 8C6 6.89543 6.89539 6 8 6C9.10461 6 10 6.89543 10 8ZM8 16C9.10461 16 10 15.1046 10 14C10 12.8954 9.10461 12 8 12C6.89539 12 6 12.8954 6 14C6 15.1046 6.89539 16 8 16Z" clip-rule="evenodd" fill="" fill-opacity="1.000000" fill-rule="evenodd"/>
	</mask>
	<path id="Combined Shape" d="M10 2C10 3.10457 9.10461 4 8 4C6.89539 4 6 3.10457 6 2C6 0.895432 6.89539 0 8 0C9.10461 0 10 0.895432 10 2ZM10 8C10 9.10457 9.10461 10 8 10C6.89539 10 6 9.10457 6 8C6 6.89543 6.89539 6 8 6C9.10461 6 10 6.89543 10 8ZM8 16C9.10461 16 10 15.1046 10 14C10 12.8954 9.10461 12 8 12C6.89539 12 6 12.8954 6 14C6 15.1046 6.89539 16 8 16Z" clip-rule="evenodd" fill="#D8D8D8" fill-opacity="0.000000" fill-rule="evenodd" mask="url(#mask_0_281)"/>
	<path id="Combined Shape" d="M8 4C9.10461 4 10 3.10457 10 2C10 0.895432 9.10461 0 8 0C6.89539 0 6 0.895432 6 2C6 3.10457 6.89539 4 8 4ZM8 10C9.10461 10 10 9.10457 10 8C10 6.89543 9.10461 6 8 6C6.89539 6 6 6.89543 6 8C6 9.10457 6.89539 10 8 10ZM10 14C10 15.1046 9.10461 16 8 16C6.89539 16 6 15.1046 6 14C6 12.8954 6.89539 12 8 12C9.10461 12 10 12.8954 10 14Z" clip-rule="evenodd" fill="#3E4056" fill-opacity="1.000000" fill-rule="evenodd"/>
	<mask id="mask0_279" mask-type="alpha" maskUnits="userSpaceOnUse" x="6.000000" y="0.000000" width="4.000000" height="16.000000">
		<mask id="mask_0_279" fill="white">
			<path id="Combined Shape" d="M10 2C10 3.10457 9.10461 4 8 4C6.89539 4 6 3.10457 6 2C6 0.895432 6.89539 0 8 0C9.10461 0 10 0.895432 10 2ZM10 8C10 9.10457 9.10461 10 8 10C6.89539 10 6 9.10457 6 8C6 6.89543 6.89539 6 8 6C9.10461 6 10 6.89543 10 8ZM8 16C9.10461 16 10 15.1046 10 14C10 12.8954 9.10461 12 8 12C6.89539 12 6 12.8954 6 14C6 15.1046 6.89539 16 8 16Z" clip-rule="evenodd" fill="" fill-opacity="1.000000" fill-rule="evenodd"/>
		</mask>
		<path id="Combined Shape" d="M10 2C10 3.10457 9.10461 4 8 4C6.89539 4 6 3.10457 6 2C6 0.895432 6.89539 0 8 0C9.10461 0 10 0.895432 10 2ZM10 8C10 9.10457 9.10461 10 8 10C6.89539 10 6 9.10457 6 8C6 6.89543 6.89539 6 8 6C9.10461 6 10 6.89543 10 8ZM8 16C9.10461 16 10 15.1046 10 14C10 12.8954 9.10461 12 8 12C6.89539 12 6 12.8954 6 14C6 15.1046 6.89539 16 8 16Z" clip-rule="evenodd" fill="#000000" fill-opacity="1.000000" fill-rule="evenodd" mask="url(#mask_0_279)"/>
		<path id="Combined Shape" d="M8 4C9.10461 4 10 3.10457 10 2C10 0.895432 9.10461 0 8 0C6.89539 0 6 0.895432 6 2C6 3.10457 6.89539 4 8 4ZM8 10C9.10461 10 10 9.10457 10 8C10 6.89543 9.10461 6 8 6C6.89539 6 6 6.89543 6 8C6 9.10457 6.89539 10 8 10ZM10 14C10 15.1046 9.10461 16 8 16C6.89539 16 6 15.1046 6 14C6 12.8954 6.89539 12 8 12C9.10461 12 10 12.8954 10 14Z" clip-rule="evenodd" fill="#3E4056" fill-opacity="1.000000" fill-rule="evenodd"/>
	</mask>
	<g mask="url(#mask0_279)">
		<rect id="Color" x="-4.000000" y="-4.000000" width="24.000000" height="24.000000" fill="#3E4056" fill-opacity="1.000000"/>
	</g>
</svg>
