<svg width="16.000000" height="16.000000" viewBox="0 0 16 16" fill="none" xmlns="http://www.w3.org/2000/svg" xmlns:xlink="http://www.w3.org/1999/xlink">
	<desc>
			Created with Pixso.
	</desc>
	<defs/>
	<g opacity="0.000100" style="mix-blend-mode:normal">
		<rect id="Mask Copy 6" width="16.000000" height="16.000000" fill="#ECF1F8" fill-opacity="1.000000"/>
		<rect id="Mask Copy 6" width="16.000000" height="16.000000" stroke="#D1DDE2" stroke-opacity="0" stroke-width="0.000000"/>
	</g>
	<path id="Path" d="M15 8C14.99 8.7 14.65 9.37 14.07 9.81L7.95 14.49C7.22 15.04 6.23 15.15 5.38 14.77C4.54 14.38 4 13.57 4 12.68L4 3.31C4 2.42 4.54 1.61 5.38 1.22C6.23 0.84 7.22 0.95 7.95 1.5L14.07 6.18C14.65 6.62 14.99 7.29 15 8Z" fill="#3E4056" fill-opacity="1.000000" fill-rule="evenodd"/>
	<path id="Path" d="M14.07 9.81L7.95 14.49C7.22 15.04 6.23 15.15 5.38 14.77C4.54 14.38 4 13.57 4 12.68L4 3.31C4 2.42 4.54 1.61 5.38 1.22C6.23 0.84 7.22 0.95 7.95 1.5L14.07 6.18C14.65 6.62 14.99 7.29 15 8C14.99 8.7 14.65 9.37 14.07 9.81Z" stroke="#E2F1F9" stroke-opacity="0" stroke-width="0.000000"/>
	<mask id="mask2_150" mask-type="alpha" maskUnits="userSpaceOnUse" x="4.000000" y="1.000000" width="11.000000" height="14.000000">
		<path id="Path" d="M15 8C14.99 8.7 14.65 9.37 14.07 9.81L7.95 14.49C7.22 15.04 6.23 15.15 5.38 14.77C4.54 14.38 4 13.57 4 12.68L4 3.31C4 2.42 4.54 1.61 5.38 1.22C6.23 0.84 7.22 0.95 7.95 1.5L14.07 6.18C14.65 6.62 14.99 7.29 15 8Z" fill="#3E4056" fill-opacity="1.000000" fill-rule="evenodd"/>
		<path id="Path" d="M14.07 9.81L7.95 14.49C7.22 15.04 6.23 15.15 5.38 14.77C4.54 14.38 4 13.57 4 12.68L4 3.31C4 2.42 4.54 1.61 5.38 1.22C6.23 0.84 7.22 0.95 7.95 1.5L14.07 6.18C14.65 6.62 14.99 7.29 15 8C14.99 8.7 14.65 9.37 14.07 9.81Z" stroke="#E2F1F9" stroke-opacity="0" stroke-width="0.000000"/>
	</mask>
	<g mask="url(#mask2_150)">
		<rect id="Color" width="16.000000" height="16.000000" fill="#3E4056" fill-opacity="1.000000"/>
	</g>
</svg>
