<svg width="20.000000" height="20.000000" viewBox="0 0 20 20" fill="none" xmlns="http://www.w3.org/2000/svg" xmlns:xlink="http://www.w3.org/1999/xlink">
	<desc>
			Created with Pixso.
	</desc>
	<defs/>
	<g opacity="0.000100" style="mix-blend-mode:normal"/>
	<path id="Combined Shape" d="M13.7247 3.41422L16.5532 6.24265C17.3342 7.02368 17.3342 8.29002 16.5532 9.07108L9.60474 16.0195C9.52246 16.1018 9.41406 16.1528 9.29822 16.1637L5.58252 16.5143C4.32202 16.6332 3.26965 15.566 3.40625 14.3074L3.80164 10.665C3.81384 10.5517 3.8645 10.446 3.94507 10.3654L10.8964 3.41422C11.6774 2.63316 12.9437 2.63316 13.7247 3.41422ZM14.431 6.95053L13.0168 5.53632C12.6263 5.14578 11.9932 5.14578 11.6027 5.53632L5.94275 11.1962L5.52893 13.2615C5.38867 13.9614 6.00598 14.5787 6.70593 14.4384L8.77124 14.0246L12.3082 10.4876L9.47986 7.65921L10.8949 6.24422L13.7233 9.0726L14.431 8.36475C14.8217 7.97421 14.8217 7.34105 14.431 6.95053Z" clip-rule="evenodd" fill="#F05D63" fill-opacity="1.000000" fill-rule="evenodd"/>
</svg>
