<svg width="32.000000" height="32.000000" viewBox="0 0 32 32" fill="none" xmlns="http://www.w3.org/2000/svg" xmlns:xlink="http://www.w3.org/1999/xlink">
	<desc>
			Created with Pixso.
	</desc>
	<defs/>
	<g opacity="0.980000" style="mix-blend-mode:normal">
		<g opacity="0.000100" style="mix-blend-mode:normal">
			<rect id="Rectangle 2 Copy 2" width="32.000000" height="32.000000" fill="#EFF3F6" fill-opacity="1.000000"/>
			<rect id="Rectangle 2 Copy 2" width="32.000000" height="32.000000" stroke="#D9DBE4" stroke-opacity="0" stroke-width="0.000000"/>
		</g>
		<rect id="Rectangle" x="8.000000" y="8.000000" width="16.000000" height="16.000000" fill="#FFFFFF" fill-opacity="0"/>
		<rect id="Rectangle 10" x="9.000000" y="11.000000" rx="3.000000" width="14.000000" height="12.000000" fill="#D8D8D8" fill-opacity="0"/>
		<rect id="Rectangle 10" x="10.000000" y="12.000000" rx="3.000000" width="12.000000" height="10.000000" stroke="#3E4056" stroke-opacity="1.000000" stroke-width="2.000000"/>
		<path id="Oval 6 Copy 3" d="" fill="#D8D8D8" fill-opacity="0" fill-rule="nonzero"/>
		<path id="Oval 6 Copy 3" d="M15.84 11.58C16.22 10.55 14.87 9.1 13.79 8.71C12.71 8.31 11.52 8.84 11.15 9.87C10.77 10.91 11.34 12.07 12.42 12.47C13.5 12.86 15.47 12.62 15.84 11.58Z" stroke="#3E4056" stroke-opacity="1.000000" stroke-width="2.000000"/>
		<path id="Oval 6 Copy 4" d="" fill="#D8D8D8" fill-opacity="0" fill-rule="nonzero"/>
		<path id="Oval 6 Copy 4" d="M16.15 11.58C15.77 10.55 17.12 9.1 18.2 8.71C19.28 8.31 20.47 8.84 20.84 9.87C21.22 10.91 20.65 12.07 19.57 12.47C18.49 12.86 16.52 12.62 16.15 11.58Z" stroke="#3E4056" stroke-opacity="1.000000" stroke-width="2.000000"/>
		<rect id="Rectangle 11" x="15.000000" y="12.000000" width="2.000000" height="10.000000" fill="#3E4056" fill-opacity="1.000000"/>
		<rect id="Rectangle 11" x="15.000000" y="12.000000" width="2.000000" height="10.000000" stroke="#979797" stroke-opacity="0" stroke-width="0.000000"/>
		<path id="Rectangle 11 Copy 2" d="M10 11L22 11C23.1 11 24 11.89 24 13L24 16C24 16.55 23.55 17 23 17L9 17C8.44 17 8 16.55 8 16L8 13C8 11.89 8.89 11 10 11Z" fill="#FFFFFF" fill-opacity="1.000000" fill-rule="evenodd"/>
		<path id="Rectangle 11 Copy 2" d="M22 11C23.1 11 24 11.89 24 13L24 16C24 16.55 23.55 17 23 17L9 17C8.44 17 8 16.55 8 16L8 13C8 11.89 8.89 11 10 11L22 11ZM22 13L22 15L10 15L10 13L22 13Z" fill="#3E4056" fill-opacity="1.000000" fill-rule="evenodd"/>
	</g>
</svg>
