<svg width="50.000000" height="23.000000" viewBox="0 0 50 23" fill="none" xmlns="http://www.w3.org/2000/svg" xmlns:xlink="http://www.w3.org/1999/xlink">
	<desc>
			Created with Pixso.
	</desc>
	<defs/>
	<path id="Synth Copy 16" d="M44.1675 0L42.0266 0L42.0266 15.9835L44.1675 15.9835L44.1675 11.5263C44.1675 10.3907 44.3165 9.58949 44.6146 9.12263C44.9191 8.66209 45.4456 8.43182 46.1941 8.43182C46.7777 8.43182 47.201 8.59742 47.4644 8.92864C47.7275 9.25986 47.8591 9.79453 47.8591 10.5327L47.8591 15.9835L50 15.9835L50 10.3339C50 9.04692 49.7335 8.11006 49.2007 7.52334C48.5728 6.84828 47.7355 6.51077 46.6888 6.51077C45.769 6.51077 44.9286 6.85144 44.1675 7.5328L44.1675 0ZM6.27979 3.47304C6.54346 3.62602 6.81897 3.93041 7.10645 4.38622C7.23596 4.82648 7.6449 5.14805 8.12939 5.14805C8.7179 5.14805 9.19507 4.67352 9.19507 4.08816C9.19507 3.84966 9.11584 3.62956 8.98218 3.45246C8.03516 1.87634 6.73157 1.08829 5.07141 1.08829C3.81543 1.08829 2.76562 1.4605 1.922 2.20496C1.07837 2.9431 0.656494 3.86103 0.656494 4.95878C0.656494 6.58648 1.66187 7.82301 3.67273 8.6684L5.09033 9.25513C5.45825 9.41285 5.77539 9.57845 6.04187 9.75195C6.30823 9.92545 6.52551 10.1116 6.6936 10.3103C6.86169 10.509 6.98535 10.7267 7.0647 10.9633C7.14404 11.1998 7.18359 11.4601 7.18359 11.744C7.18359 12.4506 6.95532 13.0341 6.49854 13.4947C6.04187 13.9552 5.46777 14.1855 4.77637 14.1855C3.901 14.1855 3.23499 13.8701 2.77832 13.2392C2.55371 12.9488 2.38879 12.4509 2.28345 11.7454L2.28357 11.7345C2.28357 11.1073 1.77234 10.5989 1.14172 10.5989C0.51123 10.5989 0 11.1073 0 11.7345C0 11.8074 0.00695801 11.8787 0.0201416 11.9478L0 11.9522C0.203003 13.3149 0.713623 14.3716 1.53186 15.1224C2.36279 15.8731 3.41577 16.2485 4.6908 16.2485C6.03552 16.2485 7.16138 15.8069 8.06848 14.9237C8.96924 14.0467 9.41956 12.9364 9.41956 11.5926C9.41956 10.5894 9.14368 9.74249 8.5918 9.05167C8.03992 8.36084 7.16772 7.7757 5.97522 7.29622L4.51001 6.70003C3.44434 6.26472 2.9115 5.69061 2.9115 4.97771C2.9115 4.46037 3.1145 4.03138 3.52051 3.6907C3.92639 3.3437 4.43701 3.17021 5.05237 3.17021C5.55347 3.17021 5.96252 3.27116 6.27979 3.47304ZM37.6023 8.75357L37.6023 15.9835L35.4614 15.9835L35.4614 8.75357L34.5481 8.75357L34.5481 6.76627L35.4614 6.76627L35.4614 3.38787L37.6023 3.38787L37.6023 6.76627L39.2673 6.76627L39.2673 8.75357L37.6023 8.75357ZM25.9467 6.76627L23.7964 6.76627L23.7964 15.9835L25.9467 15.9835L25.9467 11.5358C25.9467 10.3876 26.0927 9.58319 26.3844 9.12263C26.6825 8.65578 27.1868 8.42235 27.8972 8.42235C28.5505 8.42235 29.001 8.599 29.2483 8.9523C29.5021 9.29929 29.6289 9.92702 29.6289 10.8355L29.6289 15.9835L31.7793 15.9835L31.7793 10.3339C31.7793 9.03431 31.5192 8.09745 30.999 7.52334C30.3965 6.84828 29.5559 6.51077 28.4777 6.51077C27.5388 6.51077 26.6952 6.87983 25.9467 7.61797L25.9467 6.76627ZM11.0466 6.76627L15.2141 14.2707L11.8248 20.5779C11.7371 20.6875 11.6687 20.8132 11.6249 20.9499L11.5985 20.9991L11.6104 20.9991C11.584 21.0962 11.5699 21.1984 11.5699 21.3038C11.5699 21.9477 12.0947 22.4697 12.7422 22.4697C13.2827 22.4697 13.7378 22.1058 13.8733 21.6108L14.4896 20.1396L21.4272 6.76627L19.0105 6.76627L16.3654 12.0657L13.53 6.76627L11.0466 6.76627Z" clip-rule="evenodd" fill="#3E4056" fill-opacity="1.000000" fill-rule="evenodd"/>
</svg>
